<svg xmlns="http://www.w3.org/2000/svg" width="181.25" height="183.34" viewBox="0 0 181.25 183.34"><defs><style>.cls-1{opacity:0.2;}.cls-2{fill:#70c9b4;}</style></defs><title>criminal-justice</title><g id="Layer_2" data-name="Layer 2"><g id="Layer_1-2" data-name="Layer 1"><g class="cls-1"><path class="cls-2" d="M110,92.17a10.19,10.19,0,0,0,5.84,14.53,6.61,6.61,0,0,1,4.25,4.25,10.27,10.27,0,0,0,2.77,4.34,10.1,10.1,0,0,0,6.91,2.67,10.51,10.51,0,0,0,7.44-3.06l29-29a10.42,10.42,0,0,0,.39-14.35,10.27,10.27,0,0,0-4.34-2.77A6.61,6.61,0,0,1,158,64.54a10.19,10.19,0,0,0-14.53-5.84L111.72,27a10.19,10.19,0,0,0-5.84-14.53,6.61,6.61,0,0,1-4.25-4.25,10.27,10.27,0,0,0-2.77-4.34,10.42,10.42,0,0,0-14.35.39l-29,29a10.42,10.42,0,0,0-.39,14.35,10.27,10.27,0,0,0,4.34,2.77,6.61,6.61,0,0,1,4.25,4.25A10.27,10.27,0,0,0,66.48,59a10.1,10.1,0,0,0,6.91,2.67,10.6,10.6,0,0,0,4.85-1.17l8.92,8.92L4.38,152.17A10.91,10.91,0,0,0,19.81,167.6L102.6,84.81Zm52.82-17.1h0a5.22,5.22,0,0,1-.26,7.18l-29,29a5.22,5.22,0,0,1-7.18.26,5,5,0,0,1-1.38-2.16,11.68,11.68,0,0,0-1.26-2.67L158,72.44a11.7,11.7,0,0,0,2.67,1.26A5,5,0,0,1,162.79,75.07ZM151.68,64a5,5,0,0,1,1.38,2.16,11.69,11.69,0,0,0,1.26,2.67l-34.26,34.26a11.7,11.7,0,0,0-2.67-1.26,5,5,0,0,1-2.16-1.38,5.22,5.22,0,0,1,.26-7.18L130,78.73l14.5-14.5a5.36,5.36,0,0,1,3.79-1.57A5,5,0,0,1,151.68,64ZM58.89,44.08a5.22,5.22,0,0,1,.26-7.18l29-29a5.36,5.36,0,0,1,3.79-1.57,5,5,0,0,1,3.4,1.31,5,5,0,0,1,1.38,2.16A11.69,11.69,0,0,0,98,12.45L63.72,46.71A11.7,11.7,0,0,0,61,45.45,5,5,0,0,1,58.89,44.08ZM70,55.18A5,5,0,0,1,68.62,53a11.69,11.69,0,0,0-1.26-2.67L101.62,16.1a11.7,11.7,0,0,0,2.67,1.26,5,5,0,0,1,2.16,1.38h0a5.22,5.22,0,0,1-.26,7.18l-29,29A5.22,5.22,0,0,1,70,55.18ZM108.42,31l31,31L126.35,75.08,113.26,88.17l-31-31Zm-92.26,133A5.75,5.75,0,0,1,8,155.81L90.81,73l8.14,8.14Z"/><path class="cls-2" d="M12.09,172a12.1,12.1,0,0,1-8.55-20.64l82-82L78,61.88a11.84,11.84,0,0,1-4.6.93,11.27,11.27,0,0,1-7.72-3A11.45,11.45,0,0,1,62.58,55a5.43,5.43,0,0,0-3.48-3.48,11.44,11.44,0,0,1-4.85-3.09,11.62,11.62,0,0,1,.42-16l29-29a11.62,11.62,0,0,1,16-.42,11.47,11.47,0,0,1,3.09,4.85,5.43,5.43,0,0,0,3.48,3.49,11.36,11.36,0,0,1,6.9,15.41l30.55,30.55a11.36,11.36,0,0,1,15.41,6.9,5.43,5.43,0,0,0,3.48,3.49,11.46,11.46,0,0,1,4.85,3.09,11.62,11.62,0,0,1-.42,16l-29,29a11.62,11.62,0,0,1-8.28,3.41,11.27,11.27,0,0,1-7.72-3,11.46,11.46,0,0,1-3.09-4.85,5.42,5.42,0,0,0-3.48-3.49,11.36,11.36,0,0,1-6.9-15.41l-5.94-5.94-82,82A12,12,0,0,1,12.09,172ZM78.47,59,88.84,69.38,5.21,153A9.73,9.73,0,0,0,19,166.76L102.6,83.13l8.81,8.81-.4.77a9,9,0,0,0,5.15,12.86,7.8,7.8,0,0,1,5,5,9.08,9.08,0,0,0,2.45,3.84,8.91,8.91,0,0,0,6.1,2.36,9.27,9.27,0,0,0,6.6-2.72l29-29a9.23,9.23,0,0,0,.36-12.7,9.09,9.09,0,0,0-3.84-2.45,7.8,7.8,0,0,1-5-5A9,9,0,0,0,144,59.75l-.77.4L110.27,27.2l.4-.77a9,9,0,0,0-5.15-12.86,7.8,7.8,0,0,1-5-5,9.09,9.09,0,0,0-2.45-3.84,9.23,9.23,0,0,0-12.7.36l-29,29A9.23,9.23,0,0,0,56,46.78a9.09,9.09,0,0,0,3.84,2.45,7.8,7.8,0,0,1,5,5,9.08,9.08,0,0,0,2.45,3.84,8.91,8.91,0,0,0,6.1,2.36,9.45,9.45,0,0,0,4.31-1ZM12.09,166.82A6.94,6.94,0,0,1,7.19,155L90.81,71.35l9.81,9.81L17,164.79A6.92,6.92,0,0,1,12.09,166.82ZM90.81,74.7l-82,82a4.57,4.57,0,0,0,6.46,6.46l82-82ZM129.73,114a6.14,6.14,0,0,1-4.2-1.62,6.21,6.21,0,0,1-1.7-2.66,10.48,10.48,0,0,0-1.13-2.39l-.51-.8,35.6-35.6.8.51a10.57,10.57,0,0,0,2.4,1.13,6.17,6.17,0,0,1,2.66,1.7,6.41,6.41,0,0,1-.29,8.83l-29,29A6.55,6.55,0,0,1,129.73,114Zm-4.55-7.12a12.79,12.79,0,0,1,.9,2.11,3.87,3.87,0,0,0,1.06,1.65,4,4,0,0,0,5.54-.23l29-29a4,4,0,0,0,.23-5.54h0a3.84,3.84,0,0,0-1.65-1.06,12.89,12.89,0,0,1-2.11-.9Zm-5-2.33-.8-.51a10.55,10.55,0,0,0-2.4-1.13,6.21,6.21,0,0,1-2.66-1.7,6.42,6.42,0,0,1,.29-8.83l29-29a6.59,6.59,0,0,1,4.62-1.92,6.14,6.14,0,0,1,4.2,1.63h0a6.2,6.2,0,0,1,1.7,2.66,10.54,10.54,0,0,0,1.13,2.4l.51.8Zm28.06-40.71a4.2,4.2,0,0,0-2.95,1.22l-29,29a4,4,0,0,0-.23,5.54,3.87,3.87,0,0,0,1.65,1.06,12.77,12.77,0,0,1,2.11.9l33-33a12.85,12.85,0,0,1-.9-2.11,3.87,3.87,0,0,0-1.06-1.65h0A3.78,3.78,0,0,0,148.29,63.85Zm-35,26L80.56,57.16,108.42,29.3,141.12,62ZM83.91,57.16,113.26,86.5,137.77,62,108.42,32.65Zm-10.52.51A6.13,6.13,0,0,1,69.19,56h0a6.19,6.19,0,0,1-1.7-2.66A10.53,10.53,0,0,0,66.36,51l-.51-.8,35.6-35.6.8.51a10.55,10.55,0,0,0,2.4,1.13,6.19,6.19,0,0,1,2.66,1.7,6.42,6.42,0,0,1-.29,8.83l-29,29A6.54,6.54,0,0,1,73.39,57.67ZM70.8,54.31a4,4,0,0,0,5.54-.23l29-29a4,4,0,0,0,.23-5.54,3.84,3.84,0,0,0-1.65-1.06,12.75,12.75,0,0,1-2.11-.9l-33,33a12.84,12.84,0,0,1,.9,2.11,3.86,3.86,0,0,0,1.06,1.65Zm-6.92-6.09-.8-.51a10.45,10.45,0,0,0-2.39-1.13A6.22,6.22,0,0,1,58,44.88a6.42,6.42,0,0,1,.29-8.83l29-29a6.59,6.59,0,0,1,4.62-1.92,6.14,6.14,0,0,1,4.2,1.63,6.21,6.21,0,0,1,1.7,2.66A10.48,10.48,0,0,0,99,11.82l.51.8ZM91.94,7.51A4.2,4.2,0,0,0,89,8.73l-29,29a4,4,0,0,0-.23,5.54h0a3.86,3.86,0,0,0,1.65,1.06,12.67,12.67,0,0,1,2.11.9l33-33a12.75,12.75,0,0,1-.9-2.11A3.87,3.87,0,0,0,94.53,8.5,3.78,3.78,0,0,0,91.94,7.51Z"/><path class="cls-2" d="M180.06,168.58a2.57,2.57,0,0,0-.53-1.57L169,153.31V147a2.58,2.58,0,0,0-2.58-2.58H94.25A2.58,2.58,0,0,0,91.67,147v6.27L81.18,167a2.57,2.57,0,0,0-.53,1.57v11a2.58,2.58,0,0,0,2.58,2.58h94.27a2.58,2.58,0,0,0,2.58-2.58Zm-83.24-19h67.06v2H96.83v-2Zm-1.31,7.14h69.67l7.08,9.25H88.45ZM85.8,177v-5.83h89.11V177Z"/><path class="cls-2" d="M177.49,183.34H83.22a3.77,3.77,0,0,1-3.76-3.76v-11a3.78,3.78,0,0,1,.77-2.29L90.49,152.9V147a3.77,3.77,0,0,1,3.76-3.76h72.22a3.77,3.77,0,0,1,3.76,3.76v5.87l10.25,13.39a3.78,3.78,0,0,1,.77,2.29v11A3.77,3.77,0,0,1,177.49,183.34Zm-83.24-37.7a1.4,1.4,0,0,0-1.39,1.4v6.67l-10.74,14a1.38,1.38,0,0,0-.28.85v11a1.4,1.4,0,0,0,1.39,1.4h94.27a1.4,1.4,0,0,0,1.39-1.4v-11a1.38,1.38,0,0,0-.28-.85l-10.74-14V147a1.4,1.4,0,0,0-1.39-1.4Zm81.85,32.54H84.62V170H176.1ZM87,175.81h86.74v-3.46H87Zm87.68-8.62H86l8.89-11.62h70.84Zm-83.82-2.37h79l-5.26-6.88H96.11Zm74.23-12H95.64v-4.35h69.43Z"/><path class="cls-2" d="M128.31,63.32A2.58,2.58,0,1,0,132,59.68L110.74,38.46a2.58,2.58,0,0,0-3.65,3.65Z"/><path class="cls-2" d="M130.13,65.26a3.74,3.74,0,0,1-2.66-1.1h0L106.25,42.95a3.76,3.76,0,0,1,0-5.32,3.85,3.85,0,0,1,5.32,0l21.22,21.21a3.76,3.76,0,0,1-2.66,6.42Zm-1-2.78a1.43,1.43,0,0,0,2,0,1.4,1.4,0,0,0,0-2L109.9,39.3a1.43,1.43,0,0,0-2,0,1.39,1.39,0,0,0,0,2l21.22,21.22Z"/></g></g></g></svg>