<svg xmlns="http://www.w3.org/2000/svg" width="146.51" height="168.6" viewBox="0 0 146.51 168.6"><defs><style>.cls-1{opacity:0.2;}.cls-2{fill:#70c9b4;}</style></defs><title>education</title><g id="Layer_2" data-name="Layer 2"><g id="Layer_1-2" data-name="Layer 1"><g class="cls-1"><path class="cls-2" d="M59.45,78.78H76a2.76,2.76,0,0,0,0-5.52H59.45a2.76,2.76,0,1,0,0,5.52Z"/><path class="cls-2" d="M76,80.26H59.45a4.24,4.24,0,1,1,0-8.48H76a4.24,4.24,0,0,1,0,8.48ZM59.45,74.74a1.28,1.28,0,1,0,0,2.56H76a1.28,1.28,0,0,0,0-2.56Z"/><path class="cls-2" d="M142.27,23.57H59.45a2.76,2.76,0,1,0,0,5.52h80.06V153.31a8.5,8.5,0,0,1-8.28,8.28H15.28A8.5,8.5,0,0,1,7,153.31V26.56a15.12,15.12,0,0,0,5.52,2.25V153.31a2.76,2.76,0,0,0,5.52,0v-127a2.77,2.77,0,0,0-2.75-2.76c-1.39,0-8.3-.49-8.3-8.28V12.52A5.53,5.53,0,0,1,12.52,7H142.27a2.76,2.76,0,0,0,0-5.52H12.52a11.05,11.05,0,0,0-11,11V153.31a14,14,0,0,0,13.8,13.8H131.23a14,14,0,0,0,13.8-13.8v-127A2.76,2.76,0,0,0,142.27,23.57Z"/><path class="cls-2" d="M131.23,168.6H15.28A15.49,15.49,0,0,1,0,153.31V12.52A12.54,12.54,0,0,1,12.52,0H142.27a4.24,4.24,0,0,1,0,8.48H12.52a4,4,0,0,0-4,4v2.76c0,6.24,5.23,6.78,6.83,6.8a4.26,4.26,0,0,1,4.21,4.24v127a4.24,4.24,0,1,1-8.48,0V30a17,17,0,0,1-2.56-.92V153.31a7,7,0,0,0,6.8,6.8H131.23a7,7,0,0,0,6.8-6.8V30.57H59.45a4.24,4.24,0,1,1,0-8.48h82.82a4.25,4.25,0,0,1,4.24,4.24v127A15.49,15.49,0,0,1,131.23,168.6ZM12.52,3A9.57,9.57,0,0,0,3,12.52V153.31a12.49,12.49,0,0,0,12.32,12.32H131.23a12.49,12.49,0,0,0,12.32-12.32v-127A1.28,1.28,0,0,0,142.27,25H59.45a1.28,1.28,0,1,0,0,2.56H141V153.31a10,10,0,0,1-9.76,9.76H15.28a10,10,0,0,1-9.76-9.76V23.77l2.31,1.56a13.69,13.69,0,0,0,5,2l1.2.23V153.31a1.28,1.28,0,1,0,2.56,0v-127A1.29,1.29,0,0,0,15.28,25c-4.5-.05-9.76-2.64-9.76-9.76V12.52a7,7,0,0,1,7-7H142.27a1.28,1.28,0,0,0,0-2.56Z"/><path class="cls-2" d="M139.51,15.28a2.76,2.76,0,0,0-2.76-2.76H48.41a2.76,2.76,0,0,0-2.76,2.76V41.75l-6.33-6.33a2.76,2.76,0,0,0-3.9,0l-6.33,6.33V15.28a2.76,2.76,0,0,0-2.76-2.76h-11a2.76,2.76,0,0,0,0,5.52h8.28V48.41a2.76,2.76,0,0,0,4.71,2l9.09-9.09,9.09,9.09a2.76,2.76,0,0,0,4.71-2V18h85.58A2.76,2.76,0,0,0,139.51,15.28Z"/><path class="cls-2" d="M26.33,52.65a4.24,4.24,0,0,1-4.24-4.24V19.53h-6.8a4.24,4.24,0,1,1,0-8.48h11a4.25,4.25,0,0,1,4.24,4.24V38.17l3.8-3.8a4.34,4.34,0,0,1,6,0l3.8,3.8V15.28A4.25,4.25,0,0,1,48.41,11h88.34a4.24,4.24,0,0,1,0,8.48H52.65V48.41A4.23,4.23,0,0,1,50,52.33a4.28,4.28,0,0,1-4.62-.92l-8-8-8,8A4.24,4.24,0,0,1,26.33,52.65ZM15.28,14a1.28,1.28,0,1,0,0,2.56H25V48.41a1.28,1.28,0,0,0,2.19.9L37.37,39.18,47.51,49.32a1.29,1.29,0,0,0,1.4.28,1.28,1.28,0,0,0,.79-1.18V16.56h87.06a1.28,1.28,0,0,0,0-2.56H48.41a1.28,1.28,0,0,0-1.28,1.28v30l-8.86-8.86a1.31,1.31,0,0,0-1.81,0l-8.86,8.86v-30A1.28,1.28,0,0,0,26.33,14Z"/><path class="cls-2" d="M40.13,59.45v44.17a2.76,2.76,0,0,0,2.76,2.76h60.73a2.76,2.76,0,0,0,2.76-2.76V59.45a2.76,2.76,0,0,0-2.76-2.76H42.89A2.76,2.76,0,0,0,40.13,59.45Zm5.52,2.76h55.21v38.65H45.65Z"/><path class="cls-2" d="M103.62,107.86H42.89a4.25,4.25,0,0,1-4.24-4.24V59.45a4.25,4.25,0,0,1,4.24-4.24h60.73a4.25,4.25,0,0,1,4.24,4.24v44.17A4.25,4.25,0,0,1,103.62,107.86ZM42.89,58.17a1.28,1.28,0,0,0-1.28,1.28v44.17a1.28,1.28,0,0,0,1.28,1.28h60.73a1.28,1.28,0,0,0,1.28-1.28V59.45a1.28,1.28,0,0,0-1.28-1.28Zm59.45,44.17H44.17V60.73h58.17Zm-55.21-3H99.38V63.69H47.13Z"/><path class="cls-2" d="M87.06,84.3H59.45a2.76,2.76,0,1,0,0,5.52H87.06a2.76,2.76,0,0,0,0-5.52Z"/><path class="cls-2" d="M87.06,91.3H59.45a4.24,4.24,0,0,1,0-8.48H87.06a4.24,4.24,0,0,1,0,8.48ZM59.45,85.78a1.28,1.28,0,0,0,0,2.56H87.06a1.28,1.28,0,0,0,0-2.56Z"/></g></g></g></svg>