<svg xmlns="http://www.w3.org/2000/svg" width="235.84" height="185.79" viewBox="0 0 235.84 185.79"><defs><style>.cls-1{opacity:0.2;}.cls-2{fill:#70c9b4;}</style></defs><title>healthcare</title><g id="Layer_2" data-name="Layer 2"><g id="Layer_1-2" data-name="Layer 1"><g class="cls-1"><path class="cls-2" d="M234,82.09H215.84a1.23,1.23,0,0,1-1.16-1.63,61.55,61.55,0,0,0,1.46-34.85A58.88,58.88,0,0,0,172.83,2.4C153-2.38,133.33,2.51,118.73,15a1.23,1.23,0,0,1-1.61,0c-14.56-12.5-34.18-17.4-54-12.67C44.06,6.93,24.4,26.49,19.72,45.55a61.49,61.49,0,0,0,1.44,34.92A1.23,1.23,0,0,1,20,82.09H1.82A1.23,1.23,0,0,0,.59,83.32v4.95A1.23,1.23,0,0,0,1.82,89.5H24.44a1.23,1.23,0,0,1,1.07.63,60.42,60.42,0,0,0,10,13.18l81.52,81.52a1.23,1.23,0,0,0,1.74,0l81.57-81.56a60.35,60.35,0,0,0,10-13.14,1.23,1.23,0,0,1,1.07-.63H234a1.23,1.23,0,0,0,1.23-1.23V83.32A1.23,1.23,0,0,0,234,82.09ZM27.95,43.68C32.26,30,47.17,15,60.87,10.7,81,4.33,101.37,9.51,115.31,23.45l1.75,1.75a1.23,1.23,0,0,0,1.74,0l1.75-1.75c14-14,34.42-19.14,54.58-12.7a50.57,50.57,0,0,1,32.81,33,54.21,54.21,0,0,1-1.53,37.57,1.23,1.23,0,0,1-1.13.74H172.22a1.23,1.23,0,0,0-.87.36l-3.92,3.92a1.23,1.23,0,0,1-2.1-.87V68.21a1.23,1.23,0,0,0-2.1-.87l-14.4,14.39a1.23,1.23,0,0,1-.87.36h-8.84a1.23,1.23,0,0,0-.87.36L123.73,97a1.23,1.23,0,0,1-2.1-.87V57.6a1.23,1.23,0,0,0-2.1-.87l-25,25a1.23,1.23,0,0,1-.87.36H84.82a1.23,1.23,0,0,0-.87.36L80,86.37a1.23,1.23,0,0,1-2.1-.87V68.2a1.23,1.23,0,0,0-2.1-.87L61.43,81.73a1.23,1.23,0,0,1-.87.36h-30a1.23,1.23,0,0,1-1.13-.74A54.14,54.14,0,0,1,27.95,43.68ZM195.12,98,118.8,174.36a1.23,1.23,0,0,1-1.74,0L40.77,98.07a53.3,53.3,0,0,1-5.64-6.63,1.23,1.23,0,0,1,1-1.94H63.62a1.23,1.23,0,0,0,.87-.36l3.92-3.92a1.23,1.23,0,0,1,2.1.87v17.3a1.23,1.23,0,0,0,2.1.87L87,89.86a1.23,1.23,0,0,1,.87-.36h8.84a1.23,1.23,0,0,0,.87-.36l14.53-14.53a1.23,1.23,0,0,1,2.1.87V114a1.23,1.23,0,0,0,2.1.87l25-25a1.23,1.23,0,0,1,.87-.36H151a1.23,1.23,0,0,0,.87-.36l3.92-3.92a1.23,1.23,0,0,1,2.1.87v17.3a1.23,1.23,0,0,0,2.1.87l14.4-14.4a1.23,1.23,0,0,1,.87-.36h24.43a1.23,1.23,0,0,1,1,1.94A53.2,53.2,0,0,1,195.12,98Z"/><path class="cls-2" d="M117.93,185.79a1.81,1.81,0,0,1-1.29-.53L35.11,103.73A61,61,0,0,1,25,90.42a.64.64,0,0,0-.55-.33H1.82A1.83,1.83,0,0,1,0,88.27V83.32A1.83,1.83,0,0,1,1.82,81.5H20a.63.63,0,0,0,.52-.27.62.62,0,0,0,.08-.57,62.26,62.26,0,0,1-1.46-35.25C23.9,26,43.58,6.43,63,1.79c19.69-4.7,39.55,0,54.49,12.8a.64.64,0,0,0,.84,0c15-12.87,34.9-17.52,54.62-12.76a59.13,59.13,0,0,1,43.75,43.65,62.29,62.29,0,0,1-1.47,35.18.64.64,0,0,0,.6.84H234a1.83,1.83,0,0,1,1.82,1.82v4.95A1.83,1.83,0,0,1,234,90.09H211.4a.64.64,0,0,0-.55.33,61,61,0,0,1-10.07,13.27l-81.57,81.56A1.81,1.81,0,0,1,117.93,185.79ZM1.82,82.68a.64.64,0,0,0-.64.64v4.95a.64.64,0,0,0,.64.64H24.44a1.83,1.83,0,0,1,1.59.93A59.85,59.85,0,0,0,36,102.89l81.52,81.52a.65.65,0,0,0,.9,0l81.57-81.56a59.84,59.84,0,0,0,9.88-13,1.83,1.83,0,0,1,1.59-.93H234a.64.64,0,0,0,.64-.64V83.32a.64.64,0,0,0-.64-.64H215.84a1.82,1.82,0,0,1-1.72-2.41,61.13,61.13,0,0,0,1.44-34.52A58,58,0,0,0,172.69,3c-19.35-4.67-38.87-.11-53.57,12.51a1.82,1.82,0,0,1-2.38,0C102.08,2.9,82.6-1.67,63.29,2.94c-18.72,4.47-38.4,24-43,42.75a61.08,61.08,0,0,0,1.43,34.58A1.82,1.82,0,0,1,20,82.68Zm116.1,92.63a1.82,1.82,0,0,1-1.29-.53L40.35,98.49a54.11,54.11,0,0,1-5.7-6.7,1.8,1.8,0,0,1-.14-1.88,1.82,1.82,0,0,1,1.63-1H63.62a.64.64,0,0,0,.45-.19L68,84.8a1.82,1.82,0,0,1,3.11,1.29v17.3a.64.64,0,0,0,1.09.45l14.4-14.4a1.83,1.83,0,0,1,1.29-.53h8.84a.64.64,0,0,0,.45-.19L111.7,74.2a1.82,1.82,0,0,1,3.11,1.29V114a.64.64,0,0,0,1.09.45l25-25a1.83,1.83,0,0,1,1.29-.53H151a.64.64,0,0,0,.45-.19l3.92-3.92a1.82,1.82,0,0,1,3.11,1.29v17.3a.64.64,0,0,0,1.09.45L174,89.44a1.83,1.83,0,0,1,1.29-.53h24.43a1.82,1.82,0,0,1,1.63,1,1.8,1.8,0,0,1-.14,1.88,54,54,0,0,1-5.66,6.66l-76.33,76.33A1.82,1.82,0,0,1,117.93,175.31ZM36.13,90.09a.64.64,0,0,0-.57.35.61.61,0,0,0,0,.65,52.77,52.77,0,0,0,5.58,6.56l76.29,76.29a.64.64,0,0,0,.9,0l76.33-76.33.42.42-.42-.42a52.7,52.7,0,0,0,5.54-6.52.61.61,0,0,0,0-.65.63.63,0,0,0-.57-.35H175.29a.64.64,0,0,0-.45.19l-14.4,14.4a1.82,1.82,0,0,1-3.11-1.29V86.09a.64.64,0,0,0-1.09-.45l-3.92,3.92a1.81,1.81,0,0,1-1.29.53h-8.84a.64.64,0,0,0-.45.19l-25,25a1.82,1.82,0,0,1-3.11-1.29V75.48a.64.64,0,0,0-1.09-.45L98,89.56a1.81,1.81,0,0,1-1.29.53H87.88a.64.64,0,0,0-.45.19L73,104.68a1.82,1.82,0,0,1-3.11-1.29V86.09a.64.64,0,0,0-1.09-.45l-3.92,3.92a1.82,1.82,0,0,1-1.29.53Zm86.73,7.84a1.84,1.84,0,0,1-.71-.14A1.8,1.8,0,0,1,121,96.11V57.6a.64.64,0,0,0-1.09-.45l-25,25a1.83,1.83,0,0,1-1.29.53H84.82a.65.65,0,0,0-.45.19l-3.92,3.92a1.82,1.82,0,0,1-3.11-1.29V68.2a.64.64,0,0,0-1.09-.45L61.85,82.15a1.83,1.83,0,0,1-1.29.53h-30a1.82,1.82,0,0,1-1.68-1.1A54.42,54.42,0,0,1,27.38,43.5h0c4.4-14,19.34-28.95,33.31-33.37,20-6.35,40.62-1.52,55,12.9l1.75,1.75a.65.65,0,0,0,.9,0L120.13,23c14.46-14.46,35.09-19.26,55.18-12.85A51.1,51.1,0,0,1,208.5,43.6a54.49,54.49,0,0,1-1.55,38,1.82,1.82,0,0,1-1.68,1.1H172.22a.64.64,0,0,0-.45.19l-3.92,3.92a1.82,1.82,0,0,1-3.11-1.29V68.21a.64.64,0,0,0-1.09-.45l-14.4,14.39a1.83,1.83,0,0,1-1.29.53h-8.84a.64.64,0,0,0-.45.19L124.15,97.4A1.8,1.8,0,0,1,122.87,97.93Zm-2.48-42.17a1.83,1.83,0,0,1,.71.14,1.79,1.79,0,0,1,1.13,1.68V96.11a.64.64,0,0,0,1.09.45L137.84,82a1.81,1.81,0,0,1,1.29-.53H148a.64.64,0,0,0,.45-.19l14.4-14.39a1.82,1.82,0,0,1,3.11,1.29V85.5A.64.64,0,0,0,167,86L170.93,82a1.84,1.84,0,0,1,1.29-.53h33.05a.64.64,0,0,0,.59-.38A53.31,53.31,0,0,0,207.37,44a49.91,49.91,0,0,0-32.43-32.64C155.29,5,135.11,9.72,121,23.87l-1.75,1.75a1.8,1.8,0,0,1-1.29.53h0a1.81,1.81,0,0,1-1.29-.53l-1.75-1.75C100.79,9.77,80.66,5.05,61,11.26,47.64,15.51,32.74,30.43,28.51,43.86l-.56-.18.56.18A53.26,53.26,0,0,0,30,81.12a.64.64,0,0,0,.59.38h30a.64.64,0,0,0,.45-.19l14.4-14.4a1.82,1.82,0,0,1,3.11,1.29V85.5A.64.64,0,0,0,79.6,86L83.53,82a1.82,1.82,0,0,1,1.29-.53h8.84a.64.64,0,0,0,.45-.19l25-25A1.8,1.8,0,0,1,120.38,55.77Z"/><path class="cls-2" d="M76.74,19A41.76,41.76,0,0,0,36.32,59.46a1.24,1.24,0,0,0,1.23,1.28h0a6.72,6.72,0,0,0,6.62-5.65A34.37,34.37,0,0,1,76.84,26.45,1.23,1.23,0,0,0,78,25.23V20.28A1.24,1.24,0,0,0,76.74,19Z"/><path class="cls-2" d="M37.55,61.33a1.81,1.81,0,0,1-1.31-.55,1.83,1.83,0,0,1-.52-1.33,42.35,42.35,0,0,1,41-41h0a1.88,1.88,0,0,1,1.33.52,1.81,1.81,0,0,1,.55,1.31v4.95A1.81,1.81,0,0,1,76.86,27a33.79,33.79,0,0,0-32.1,28.14A7.3,7.3,0,0,1,37.55,61.33Zm39.2-41.69A41.16,41.16,0,0,0,36.91,59.48a.65.65,0,0,0,.18.47.64.64,0,0,0,.46.19,6.12,6.12,0,0,0,6-5.15A35,35,0,0,1,76.82,25.86a.64.64,0,0,0,.61-.64V20.28a.63.63,0,0,0-.19-.46.69.69,0,0,0-.48-.18Z"/></g></g></g></svg>