<svg xmlns="http://www.w3.org/2000/svg" width="184.08" height="184.08" viewBox="0 0 184.08 184.08"><defs><style>.cls-1{opacity:0.2;}.cls-2{fill:#70c9b4;}</style></defs><title>minimum-wage</title><g id="Layer_2" data-name="Layer 2"><g id="Layer_1-2" data-name="Layer 1"><g class="cls-1"><path class="cls-2" d="M34.5,155.64a3,3,0,0,0,2.14-5.17l-24.4-24.39c-.2-.18-5-4.46-5-12.84V67.81a6.06,6.06,0,1,1,12.11,0v24a3,3,0,1,0,6.06,0v-24a12.11,12.11,0,0,0-24.23,0v45.43c0,11.31,6.84,17.21,6.94,17.28l24.23,24.23A3,3,0,0,0,34.5,155.64Z"/><path class="cls-2" d="M34.5,156.83a4.18,4.18,0,0,1-3-1.24L7.29,131.36h0c-1.06-1-7.29-7.07-7.29-18.12V67.81a13.3,13.3,0,0,1,26.6,0v24a4.21,4.21,0,1,1-8.43,0v-24a4.87,4.87,0,0,0-9.75,0v45.43c0,7.82,4.41,11.79,4.59,12l24.46,24.44a4.21,4.21,0,0,1-3,7.19ZM13.3,56.88A10.94,10.94,0,0,0,2.37,67.81v45.43c0,10.79,6.44,16.31,6.5,16.36l.09.08L33.2,153.92a1.89,1.89,0,0,0,2.61,0,1.85,1.85,0,0,0,0-2.61L11.4,126.92c-.5-.43-5.34-5-5.34-13.68V67.81a7.24,7.24,0,0,1,14.48,0v24a1.84,1.84,0,1,0,3.69,0v-24A10.94,10.94,0,0,0,13.3,56.88Z"/><path class="cls-2" d="M170.78,55.7a12.13,12.13,0,0,0-12.11,12.11v24a3,3,0,1,0,6.06,0v-24a6.06,6.06,0,1,1,12.11,0v45.43c0,8.39-4.79,12.67-5.17,13l-24.23,24.23a3,3,0,1,0,4.28,4.28l24-24.06c.29-.25,7.13-6.15,7.13-17.46V67.81A12.13,12.13,0,0,0,170.78,55.7Z"/><path class="cls-2" d="M149.58,156.83a4.21,4.21,0,0,1-3-7.19l24.23-24.23c.85-.76,4.82-4.7,4.82-12.17V67.81a4.87,4.87,0,1,0-9.74,0v24a4.21,4.21,0,0,1-8.43,0v-24a13.3,13.3,0,0,1,26.6,0v45.43c0,11.85-7.24,18.1-7.55,18.36l-24,24A4.18,4.18,0,0,1,149.58,156.83Zm21.2-96.25A7.25,7.25,0,0,1,178,67.81v45.43c0,8.47-4.63,13.05-5.56,13.88l-24.18,24.19a1.84,1.84,0,0,0,0,2.61,1.89,1.89,0,0,0,2.61,0l24-24.06c.35-.3,6.78-5.86,6.78-16.62V67.81a10.93,10.93,0,0,0-21.86,0v24a1.84,1.84,0,1,0,3.69,0v-24A7.25,7.25,0,0,1,170.78,60.57Z"/><path class="cls-2" d="M19.54,110.15a12.44,12.44,0,0,0,3.73,8.26l15.14,15.14a3,3,0,1,0,4.28-4.28L27.55,114.13a6.37,6.37,0,0,1-2-4.22,5.44,5.44,0,0,1,5.57-5.57,6.39,6.39,0,0,1,4.22,2l21.34,21.33a17.77,17.77,0,0,1,5,12.87v15.14a3,3,0,0,0,6.06,0V140.5a23.79,23.79,0,0,0-6.94-17.28L39.67,102a12.43,12.43,0,0,0-8.26-3.73,11.51,11.51,0,0,0-11.87,11.87Z"/><path class="cls-2" d="M64.78,159.85a4.22,4.22,0,0,1-4.21-4.21V140.5a16.78,16.78,0,0,0-4.64-12L34.55,107.14a5.2,5.2,0,0,0-3.43-1.61A4,4,0,0,0,28,106.77a4.05,4.05,0,0,0-1.25,3.09,5.2,5.2,0,0,0,1.61,3.43l15.14,15.15a4.21,4.21,0,1,1-6,6L22.44,119.25a13.61,13.61,0,0,1-4.08-9h0a12.69,12.69,0,0,1,13.1-13.1,13.61,13.61,0,0,1,9,4.08L61.7,122.37A24.93,24.93,0,0,1,69,140.5v15.14A4.22,4.22,0,0,1,64.78,159.85ZM30.93,103.15h.28a7.56,7.56,0,0,1,5,2.31l21.34,21.33a19,19,0,0,1,5.37,13.71v15.14a1.84,1.84,0,0,0,3.69,0V140.5c0-10.65-6.45-16.32-6.52-16.37L38.83,102.85a11.26,11.26,0,0,0-7.47-3.38,10.2,10.2,0,0,0-7.62,3,10.09,10.09,0,0,0-3,7.62h0a11.25,11.25,0,0,0,3.38,7.47l15.14,15.14a1.84,1.84,0,1,0,2.61-2.61L26.72,115a7.54,7.54,0,0,1-2.31-5,6.63,6.63,0,0,1,6.52-6.8Z"/><path class="cls-2" d="M70.84,164.73H22.38a3,3,0,0,0-3,3v12.11a3,3,0,0,0,6.06,0v-9.09h42.4v9.09a3,3,0,0,0,6.06,0V167.76A3,3,0,0,0,70.84,164.73Z"/><path class="cls-2" d="M70.84,184.08a4.22,4.22,0,0,1-4.21-4.21V172h-40v7.9a4.21,4.21,0,0,1-8.43,0V167.76a4.22,4.22,0,0,1,4.21-4.21H70.84a4.22,4.22,0,0,1,4.21,4.21v12.11A4.22,4.22,0,0,1,70.84,184.08ZM24.23,169.6H69v10.27a1.84,1.84,0,0,0,3.69,0V167.76a1.85,1.85,0,0,0-1.84-1.84H22.38a1.85,1.85,0,0,0-1.84,1.84v12.11a1.84,1.84,0,0,0,3.69,0Z"/><path class="cls-2" d="M116.27,140.5v15.14a3,3,0,0,0,6.06,0V140.5a17.79,17.79,0,0,1,5.17-13l21.2-21.2a6.39,6.39,0,0,1,4.22-2,5.14,5.14,0,0,1,4,1.59,5.21,5.21,0,0,1,1.59,4,6.39,6.39,0,0,1-2,4.22l-15.14,15.14a3,3,0,0,0,4.28,4.28l15.14-15.14a12.45,12.45,0,0,0,3.73-8.26,11.51,11.51,0,0,0-11.87-11.87,12.43,12.43,0,0,0-8.26,3.73l-21,21.05A23.81,23.81,0,0,0,116.27,140.5Z"/><path class="cls-2" d="M119.3,159.85a4.22,4.22,0,0,1-4.21-4.21V140.5a25,25,0,0,1,7.51-18.33l21-21a13.61,13.61,0,0,1,9-4.08,12.69,12.69,0,0,1,13.1,13.1,13.63,13.63,0,0,1-4.08,9.05l-15.14,15.14a4.21,4.21,0,1,1-6-6l15.14-15.14a5.2,5.2,0,0,0,1.61-3.43,4.06,4.06,0,0,0-1.25-3.09,4,4,0,0,0-3.09-1.25,5.22,5.22,0,0,0-3.43,1.61l-21.2,21.2a16.61,16.61,0,0,0-4.82,12.17v15.14A4.22,4.22,0,0,1,119.3,159.85Zm33.83-60.4h-.41a11.25,11.25,0,0,0-7.46,3.38l-21,21.06c-.34.29-6.75,5.94-6.75,16.59v15.14a1.84,1.84,0,1,0,3.69,0V140.5a19,19,0,0,1,5.55-13.87l21.17-21.17a7.57,7.57,0,0,1,5-2.31,6.24,6.24,0,0,1,4.86,1.94,6.37,6.37,0,0,1,1.94,4.87,7.56,7.56,0,0,1-2.31,5l-15.14,15.14a1.84,1.84,0,1,0,2.61,2.61L160,117.58a11.27,11.27,0,0,0,3.38-7.47,10.33,10.33,0,0,0-10.23-10.64Z"/><path class="cls-2" d="M92,34.5a6.06,6.06,0,0,1,6.06,6.06,3,3,0,1,0,6.06,0,12.1,12.1,0,0,0-9.09-11.68v-.43a3,3,0,0,0-6.06,0v.43a12.09,12.09,0,0,0,3,23.8A6.06,6.06,0,1,1,86,58.73a3,3,0,0,0-6.06,0A12.1,12.1,0,0,0,89,70.41v.43a3,3,0,1,0,6.06,0v-.43a12.09,12.09,0,0,0-3-23.8A6.06,6.06,0,1,1,92,34.5Z"/><path class="cls-2" d="M92,75.06a4.22,4.22,0,0,1-4.19-3.75,13.28,13.28,0,0,1-9.11-12.58,4.21,4.21,0,1,1,8.43,0A4.87,4.87,0,1,0,92,53.86,13.27,13.27,0,0,1,87.85,28a4.21,4.21,0,0,1,8.38,0,13.27,13.27,0,0,1,9.11,12.58,4.21,4.21,0,1,1-8.43,0A4.87,4.87,0,1,0,92,45.43,13.27,13.27,0,0,1,96.23,71.3,4.22,4.22,0,0,1,92,75.06ZM83,56.88a1.85,1.85,0,0,0-1.84,1.84,10.92,10.92,0,0,0,8.2,10.54l.89.23v1.35a1.84,1.84,0,0,0,3.69,0V69.5l.89-.23A10.9,10.9,0,0,0,92,47.8a7.24,7.24,0,1,1,7.24-7.24,1.84,1.84,0,0,0,3.69,0A10.91,10.91,0,0,0,94.77,30l-.89-.23V28.44a1.84,1.84,0,1,0-3.69,0v1.35l-.89.23A10.9,10.9,0,0,0,92,51.49a7.24,7.24,0,1,1-7.24,7.24A1.85,1.85,0,0,0,83,56.88Z"/><path class="cls-2" d="M161.7,164.73H113.24a3,3,0,0,0-3,3v12.11a3,3,0,1,0,6.06,0v-9.09h42.4v9.09a3,3,0,1,0,6.06,0V167.76A3,3,0,0,0,161.7,164.73Z"/><path class="cls-2" d="M161.7,184.08a4.22,4.22,0,0,1-4.21-4.21V172h-40v7.9a4.21,4.21,0,0,1-8.43,0V167.76a4.22,4.22,0,0,1,4.21-4.21H161.7a4.22,4.22,0,0,1,4.21,4.21v12.11A4.22,4.22,0,0,1,161.7,184.08ZM115.09,169.6h44.77v10.27a1.84,1.84,0,0,0,3.69,0V167.76a1.85,1.85,0,0,0-1.84-1.84H113.24a1.85,1.85,0,0,0-1.84,1.84v12.11a1.84,1.84,0,0,0,3.69,0Z"/><path class="cls-2" d="M140.5,49.64A48.46,48.46,0,1,0,92,98.1,48.51,48.51,0,0,0,140.5,49.64ZM92,92a42.4,42.4,0,1,1,42.4-42.4A42.45,42.45,0,0,1,92,92Z"/><path class="cls-2" d="M92,99.28a49.64,49.64,0,1,1,49.64-49.64A49.7,49.7,0,0,1,92,99.28ZM92,2.37a47.27,47.27,0,1,0,47.27,47.27A47.33,47.33,0,0,0,92,2.37Zm0,90.86a43.58,43.58,0,1,1,43.59-43.58A43.63,43.63,0,0,1,92,93.23Zm0-84.8a41.21,41.21,0,1,0,41.22,41.21A41.26,41.26,0,0,0,92,8.43Z"/></g></g></g></svg>