<svg xmlns="http://www.w3.org/2000/svg" width="121.82" height="186.57" viewBox="0 0 121.82 186.57"><defs><style>.cls-1{opacity:0.2;}.cls-2{fill:#70c9b4;}</style></defs><title>voting-rights</title><g id="Layer_2" data-name="Layer 2"><g id="Layer_1-2" data-name="Layer 1"><g class="cls-1"><path class="cls-2" d="M120.33,117.27a2.45,2.45,0,0,0-.17-.83l-.09-.2c0-.07-.05-.15-.09-.22L95.48,75.58a2.46,2.46,0,0,0-2.1-1.18H80.76L109.21,46a2.45,2.45,0,0,0,0-3.47L68.93,2.2a2.45,2.45,0,0,0-3.47,0L12.6,55a2.45,2.45,0,0,0,0,3.47L28.49,74.4h-.06a2.45,2.45,0,0,0-2.1,1.18L1.83,116a1.9,1.9,0,0,0-.09.22l-.09.2a2.48,2.48,0,0,0-.17.84h0v65.35a2.45,2.45,0,0,0,2.45,2.45h114a2.45,2.45,0,0,0,2.45-2.45V117.29ZM67.19,7.39,104,44.22,54.63,93.6,36.14,75.12,17.8,56.78ZM29.81,79.3h3.58l19.5,19.5a2.43,2.43,0,0,0,.8.53,2.4,2.4,0,0,0,.94.19H75.81a2.45,2.45,0,1,0,0-4.9H60.54L75.86,79.3H92l21.53,35.53H8.28Zm85.62,100.89H6.38V119.74H115.43v60.45Z"/><path class="cls-2" d="M117.89,186.57H3.93A3.94,3.94,0,0,1,0,182.64V117.07a4,4,0,0,1,.25-1.15l.12-.29a2.22,2.22,0,0,1,.18-.39l24.5-40.43a3.92,3.92,0,0,1,.8-.94L11.56,59.56a3.93,3.93,0,0,1,0-5.56L64.41,1.15a3.94,3.94,0,0,1,5.56,0l40.29,40.29a3.94,3.94,0,0,1,0,5.56L84.34,72.92h9a4,4,0,0,1,3.36,1.89l24.51,40.44a2.22,2.22,0,0,1,.18.39c0,.05.07.14.11.25a4.31,4.31,0,0,1,.24,1l0,.06v65.73A3.94,3.94,0,0,1,117.89,186.57ZM3,117.46v65.18a1,1,0,0,0,1,1h114a1,1,0,0,0,1-1V117.29a1,1,0,0,0-.08-.33l-.11-.25L94.21,76.35a1,1,0,0,0-.83-.47H77.19l31-31a1,1,0,0,0,0-1.37L67.88,3.24a1,1,0,0,0-1.37,0L13.65,56.09a1,1,0,0,0,0,1.37L32.07,75.88H28.49a1,1,0,0,0-.89.47L3,117a1,1,0,0,0-.07.31Zm114,64.21H4.9V118.26h112Zm-109.05-3H114V121.22H7.86Zm108.3-62.39H5.65L29,77.82h5L53.94,97.75a1,1,0,0,0,.32.21.92.92,0,0,0,.37.08H75.81a1,1,0,0,0,0-1.94H57L75.24,77.82H92.83Zm-105.25-3h100L91.16,80.78H76.47L64.12,93.14h11.7a3.93,3.93,0,0,1,0,7.86H54.62a4,4,0,0,1-2.79-1.16L32.78,80.78H30.65ZM54.63,95.7,15.71,56.78,67.19,5.3l38.92,38.92ZM19.9,56.78,54.63,91.51l47.29-47.29L67.19,9.49Z"/></g></g></g></svg>