<svg xmlns="http://www.w3.org/2000/svg" width="115.54" height="184.15" viewBox="0 0 115.54 184.15"><defs><style>.cls-1{opacity:0.2;}.cls-2{fill:#70c9b4;}</style></defs><title>womens-rights</title><g id="Layer_2" data-name="Layer 2"><g id="Layer_1-2" data-name="Layer 1"><g class="cls-1"><path class="cls-2" d="M114.95,57.77a57.18,57.18,0,1,0-61,57v34.5H34.9a3.81,3.81,0,0,0,0,7.62H54v22.87a3.81,3.81,0,0,0,7.62,0V156.88H80.64a3.81,3.81,0,0,0,0-7.62H61.58v-34.5A57.22,57.22,0,0,0,114.95,57.77ZM57.77,107.32a49.55,49.55,0,1,1,49.55-49.55A49.61,49.61,0,0,1,57.77,107.32Z"/><path class="cls-2" d="M57.77,184.15a4.41,4.41,0,0,1-4.4-4.4V157.47H34.9a4.4,4.4,0,1,1,0-8.81H53.37V115.3a57.77,57.77,0,1,1,8.81,0v33.36H80.64a4.4,4.4,0,0,1,0,8.81H62.18v22.28A4.41,4.41,0,0,1,57.77,184.15ZM34.9,149.85a3.22,3.22,0,1,0,0,6.44H54.55v23.46a3.22,3.22,0,0,0,6.44,0V156.29H80.64a3.22,3.22,0,0,0,0-6.44H61V114.2l.55,0a56.59,56.59,0,1,0-7.55,0l.55,0v35.65Zm22.87-41.93h0a50.15,50.15,0,1,1,50.15-50.15A50.28,50.28,0,0,1,57.77,107.92Zm0-99.11a49,49,0,1,0,49,49A49,49,0,0,0,57.77,8.81Z"/></g></g></g></svg>