<svg xmlns="http://www.w3.org/2000/svg" width="182.54" height="153.89" viewBox="0 0 182.54 153.89"><defs><style>.cls-1{opacity:0.2;}.cls-2{fill:#70c9b4;}</style></defs><title>workers-rights</title><g id="Layer_2" data-name="Layer 2"><g id="Layer_1-2" data-name="Layer 1"><g class="cls-1"><path class="cls-2" d="M169.72,57.57H142.88l36.74-36.74a10,10,0,0,0,0-14.08l-3.83-3.83a10,10,0,0,0-14.09,0L107,57.57H11.72A11.73,11.73,0,0,0,0,69.28v72.89a11.73,11.73,0,0,0,11.72,11.72h158a11.73,11.73,0,0,0,11.72-11.72V69.28A11.73,11.73,0,0,0,169.72,57.57ZM166.85,8.05a2.69,2.69,0,0,1,3.8,0l3.83,3.83a2.69,2.69,0,0,1,0,3.8L165.17,25l-6.54-6.54-1.1-1.1ZM152.39,22.51,160,30.14,87.32,102.85l-11.45,3.82,3.82-11.45Zm21.77,119.66a4.45,4.45,0,0,1-4.44,4.44h-158a4.45,4.45,0,0,1-4.44-4.44V69.28a4.45,4.45,0,0,1,4.44-4.44H99.78L73.94,90.68a3.64,3.64,0,0,0-.88,1.42l-6.39,19.16a3.64,3.64,0,0,0,4.6,4.6l19.16-6.39a3.64,3.64,0,0,0,1.42-.88l43.76-43.76h34.11a4.45,4.45,0,0,1,4.44,4.44v72.89Z"/><path class="cls-2" d="M160.82,131.18h-2.17a3.64,3.64,0,0,0,0,7.27h2.17a3.64,3.64,0,1,0,0-7.27Z"/><path class="cls-2" d="M144.2,131.18H61.45a3.64,3.64,0,1,0,0,7.27H144.2a3.64,3.64,0,1,0,0-7.27Z"/><path class="cls-2" d="M160.82,110.22h-54.2a3.64,3.64,0,0,0,0,7.27h54.2a3.64,3.64,0,1,0,0-7.27Z"/><path class="cls-2" d="M38.36,98.41V84.93c4.65.33,6.38,2.46,8,2.46,2,0,2.92-2.52,2.92-3.79,0-3.25-6.38-4.65-10.89-4.78V77c0-.8-1-1.53-2-1.53A1.75,1.75,0,0,0,34.44,77V79c-6.31.66-12.62,4-12.62,12.35s6.64,10.89,12.62,13v15.61c-6.77-.53-8.57-5.18-10.76-5.18-1.66,0-3.06,2.19-3.06,3.79,0,3.25,5.58,7.7,13.81,7.84v2.06A1.75,1.75,0,0,0,36.36,130c1,0,2-.73,2-1.53v-2.26c7.17-1,12.09-5.51,12.09-13.68C50.44,103.46,44.13,100.54,38.36,98.41Zm-3.52-1.26c-3.52-1.33-6.38-2.72-6.38-6.51,0-3.45,2.66-5.11,6.38-5.58ZM38,119.8v-14c3.25,1.39,5.84,3.25,5.84,7.44C43.8,117,41.54,119.13,38,119.8Z"/></g></g></g></svg>