<svg xmlns="http://www.w3.org/2000/svg" viewBox="0 0 353.37 142.72"><defs><style>.cls-1{fill:#fff;}</style></defs><title>white</title><g id="Layer_2" data-name="Layer 2"><g id="Layer_1-2" data-name="Layer 1"><path class="cls-1" d="M165.33,81.85l-.74.12s.1,0,.23,0a.34.34,0,0,1-.16,0c-.05.05-.06.09,0,.1s.06,0,.06.06l-.56.08a4.82,4.82,0,0,1-.56,0,1.17,1.17,0,0,0,.6,0,3.5,3.5,0,0,1,.72-.08v.12a1.07,1.07,0,0,0,.45,0c.17,0,.28,0,.33.1l-1.26.21-1.48.27-1.46.25q-.7.12-1.17.23l-.93,2.16q-.55,1.26-1.11,2.61t-1.05,2.63q-.49,1.28-.8,2.26s0,0-.08.12q-.55,1.56-1.07,3t-1,3q-.16.43-.31.91a3.37,3.37,0,0,0-.16,1l-.14.12s0,.08.1.16a.27.27,0,0,0,0,.31.25.25,0,0,1-.1.06s0,.06,0,.14c-.13-.05-.2-.13-.2-.23s-.07,0-.06,0,0,0-.06,0a.38.38,0,0,0-.08-.35c-.1.05-.12.18,0,.39s.09.35,0,.43a.34.34,0,0,1-.1-.19.36.36,0,0,0-.1-.19c-.13-.05-.21,0-.23.12a.64.64,0,0,0,0,.31.6.6,0,0,1-.1-.25,1.56,1.56,0,0,0-.06-.25c-.05,0-.07,0-.06,0s0,0-.06,0,0-.25-.06-.37a3.17,3.17,0,0,1,0-.37.26.26,0,0,0-.19.08,1.37,1.37,0,0,0-.08.43.55.55,0,0,1-.08.31c-.16,0-.23-.13-.21-.31a.31.31,0,0,0-.17-.35,1.17,1.17,0,0,0,0-.51s0,0,0,.08a.42.42,0,0,1-.08-.23,1.12,1.12,0,0,0,0-.27.62.62,0,0,0-.16.51,6.49,6.49,0,0,1,.14-1.91q.21-1,.45-1.87a2.37,2.37,0,0,0-.12.37,2.35,2.35,0,0,1-.12.37,1.15,1.15,0,0,1,.14-.66.94.94,0,0,0,.1-.66q.39-1.36,1-3t1.3-3.39l1.32-3.35q.64-1.63,1.11-2.88a4.7,4.7,0,0,0-1.11.14,4.72,4.72,0,0,1-1.11.14.92.92,0,0,1,.52-.16,1.42,1.42,0,0,0,.56-.12.29.29,0,0,0,.23,0,.71.71,0,0,1,.31-.06l.37-.06a.63.63,0,0,0,.29-.1,5.28,5.28,0,0,0-1.21.14,7.2,7.2,0,0,1-1.17.17l-.7.16a.13.13,0,0,0-.16,0,.16.16,0,0,1-.16,0,.44.44,0,0,1,0-.14.17.17,0,0,0,0-.14c-.13.05-.21.05-.23,0s0-.07,0-.06a.06.06,0,0,0,.08,0,1,1,0,0,0-.14-.25.18.18,0,0,1,0-.25L153,83a.84.84,0,0,0,.39-.78.23.23,0,0,1,.16.08q.78-.16,1.54-.25a13,13,0,0,0,1.54-.29c.05,0,.07,0,.06,0s0,0,.06,0l.74-.08.52-1.07c.12-.25.23-.47.33-.66l.33-.62c.12-.22.32-.55.6-1h0q.58-1,1.13-1.93a13.16,13.16,0,0,1,1.21-1.77s0,0,0,0,0,0,.06,0q.7-.78,1.3-1.58a8,8,0,0,1,1.38-1.42.49.49,0,0,1,.19-.12.23.23,0,0,0,.16-.16,1.34,1.34,0,0,1,.62-.21l.66,0s0,0-.08-.06-.09,0,0-.1a.23.23,0,0,0,.16,0,3.88,3.88,0,0,1,.19.37,1.82,1.82,0,0,1,.12.49,1.27,1.27,0,0,0,.31,0,.44.44,0,0,1,.31,0,.37.37,0,0,0,.12.37.84.84,0,0,1,.23.37,2,2,0,0,1,.23.91c0,.4.05.81.08,1.23q0,.39,0,.7a3.31,3.31,0,0,1,0,.62.21.21,0,0,0-.14.23,2.91,2.91,0,0,1,0,.35.35.35,0,0,0-.08.25.59.59,0,0,1,0,.25.29.29,0,0,1-.1.12.55.55,0,0,0-.14.16.11.11,0,0,0,0,.08s0,0-.08,0a.16.16,0,0,1,0-.08.28.28,0,0,0,0-.12c-.1.08-.19.08-.25,0a.19.19,0,0,0-.25,0,.16.16,0,0,0,0-.12l-.08,0-.12,0s0,.06,0,.19a.25.25,0,0,1-.1-.25.3.3,0,0,0-.06-.25,0,0,0,0,0,0,0,0,0,0,0,1,0,0,.53.53,0,0,1,0-.27c-.08,0-.12,0-.14-.06s-.07,0-.17,0a.75.75,0,0,1,0-.21.79.79,0,0,0,0-.21.41.41,0,0,1-.16-.19c-.05,0-.07,0-.06.08a.22.22,0,0,1,0,.16.47.47,0,0,1,0-.25,3.41,3.41,0,0,0,0-.37,1.31,1.31,0,0,0,0-.31.18.18,0,0,0-.12-.19.12.12,0,0,0,0,.12.22.22,0,0,1,0,.16c0,.1,0,.15,0,.14s0,0,0-.1V75.2c0-.21,0-.41,0-.6s0-.37,0-.53a11,11,0,0,0-1,1.17,10.07,10.07,0,0,0-.86,1.36c-.05.1-.09.16-.12.16q-.43.82-.7,1.26c-.18.3-.34.58-.47.84l-.43.88q-.23.49-.58,1.38a.11.11,0,0,0,.08,0c.16,0,.38-.08.66-.16a3.33,3.33,0,0,1,.51-.12.43.43,0,0,1,.33,0,.21.21,0,0,0,.25-.06s.05,0,.08.08a1.31,1.31,0,0,1,.41-.08,1.33,1.33,0,0,0,.33,0l.06,0a.16.16,0,0,0,.1,0c0,.05,0,.08,0,.08s0,0,0,0h.82a.66.66,0,0,0,.55-.19s0,0,0,0a.07.07,0,0,1,.08,0l.06.08s0,0,.1,0a.41.41,0,0,0,.35,0,.41.41,0,0,1,.35,0v-.16l.17.06a.56.56,0,0,0,.21,0c0,.05,0,.07.14.06s.15,0,.17.06a1.69,1.69,0,0,0-.45,0l-.53.06a.38.38,0,0,0,.18,0,.38.38,0,0,1,.17,0,.5.5,0,0,1-.27,0,.62.62,0,0,0-.31,0,.18.18,0,0,0-.16.06.28.28,0,0,1-.12.1.8.8,0,0,0,.47,0l.47-.1a.33.33,0,0,1,.17,0s.08,0,.14,0,0,.09.1.1.08,0,.06.1a1.53,1.53,0,0,1-.64.1,2.13,2.13,0,0,0-.64.06.24.24,0,0,0,.1.06.09.09,0,0,1,.06.1q-.16,0,0,.16a.84.84,0,0,0-.43,0l0,0Zm-14,16.81s0-.1,0-.21.07-.11,0,0a.31.31,0,0,0,0,.12A.11.11,0,0,1,151.36,98.66Zm.16-.62c.05,0,.06,0,0,.12a.45.45,0,0,0-.06.19.17.17,0,0,1,0-.16A.34.34,0,0,0,151.52,98Zm.08-.27a.12.12,0,0,1,0,.12c0,.05,0,.08-.06.08A.18.18,0,0,1,151.59,97.77Zm1.21,4.51,0-.08s0,0,0,0S152.8,102.25,152.8,102.28Zm6.81-24.55a1.36,1.36,0,0,1-.19.39A.42.42,0,0,1,159.61,77.73Zm4.82,3c0,.05-.05.07-.08.06a.14.14,0,0,0-.12,0A.26.26,0,0,1,164.43,80.68Zm.74,0a.34.34,0,0,1-.17.1.61.61,0,0,0-.22.1c0-.08,0-.12,0-.12a.18.18,0,0,1,.21-.08A.29.29,0,0,0,165.17,80.68Zm0,1.28-.27,0A.68.68,0,0,1,165.14,82Zm.74-.12v-.08a.19.19,0,0,1-.22,0,.13.13,0,0,0-.17,0l0,0h0s0,0,0,0v0l-.31,0h.08c-.05,0,0,0,.06,0l.29,0,.27,0C165.91,81.86,165.93,81.85,165.88,81.85Zm-.23-5.29a.3.3,0,0,1,0-.19A.31.31,0,0,1,165.64,76.56Zm.47,4.16a.17.17,0,0,1-.23.06.31.31,0,0,0-.23,0,.27.27,0,0,1,.23-.06Zm.27-.23c0,.08,0,.12,0,.12s-.07.06-.14,0-.11,0-.14,0a.07.07,0,0,1,.08-.08A.22.22,0,0,0,166.38,80.49Z"/><path class="cls-1" d="M176.38,84.93c.05,0,.06,0,0,0s0,0,0,.06l.23-.14a.54.54,0,0,1,.27-.1,1,1,0,0,1-.21.33,2.79,2.79,0,0,0-.25.29l.31-.23a1.26,1.26,0,0,1-.37.43,4.42,4.42,0,0,1-.52.35c0,.05,0,.07,0,.06s0,0,0,.06a2,2,0,0,0-.31.19,1.77,1.77,0,0,0-.31.31.63.63,0,0,1,.2,0,2.22,2.22,0,0,0-.35.17l-.27.17v-.08a.11.11,0,0,0-.08,0v0h0c0,.05,0,.08-.12.08a0,0,0,0,0,0,0v0h-.08V87a2.56,2.56,0,0,0-.62.25,1.76,1.76,0,0,1-.7.21l-.16,0a.3.3,0,0,1-.19,0,4.06,4.06,0,0,1-.58,0,2,2,0,0,0-.47,0h-.66a2.57,2.57,0,0,1-.74-.12c.05.1.06.17,0,.21a.31.31,0,0,0-.06.21c-.05,0-.07-.05,0-.08a0,0,0,0,0,0-.08l-.19.58c-.05.13-.09.23-.12.31l-.12.31-.08.06s0,0,0,.1l0,0a1.21,1.21,0,0,1-.17.49,2,2,0,0,0-.21.45.19.19,0,0,0,.14-.17.36.36,0,0,1,.1-.21l.14-.25a.4.4,0,0,0,.06-.21c.05.05,0,.12,0,.19s-.07.14,0,.19a4.47,4.47,0,0,1-.17.45,1.74,1.74,0,0,0-.14.49c-.05,0-.07,0-.06.1s0,.12-.06.1a.25.25,0,0,1-.06.25.56.56,0,0,0-.14.29c0-.05,0-.08.12-.08s0,.12,0,.12,0,.07,0,.06,0,0,0,.06a.3.3,0,0,1-.19,0l0-.08q-.43.66-.8,1.38a9.31,9.31,0,0,1-.84,1.34s0,0,.06,0a.09.09,0,0,1,.1-.06q-.35.47-.74.93t-.78.9l-.37.51a4.09,4.09,0,0,1-.37.43.59.59,0,0,1-.16.12.65.65,0,0,0-.16.12q-.43.43-1,.88a3.64,3.64,0,0,1-1.23.68s0,.05,0,.16a4.7,4.7,0,0,1-1.05.14,1.65,1.65,0,0,1-1-.21,2.92,2.92,0,0,1-1.48-.58,1.86,1.86,0,0,1-.66-1.36,3.67,3.67,0,0,1,0-1.24q.1-.58.25-1.17a15.41,15.41,0,0,1,1.21-3.31,8.61,8.61,0,0,0,.55-1,3.52,3.52,0,0,1,.62-1,.56.56,0,0,1,.14-.29.56.56,0,0,0,.14-.29.79.79,0,0,0,.23-.39.43.43,0,0,0,.23-.35c.05.05.08,0,.08-.12a.12.12,0,0,0,.08,0,2.23,2.23,0,0,1,.47-.64,2.26,2.26,0,0,0,.47-.64c.1-.05.16-.12.16-.2l1.13-1.34a16.61,16.61,0,0,1,1.24-1.3.11.11,0,0,1,0-.08v0a.11.11,0,0,1,.08,0l.12,0a1,1,0,0,0,.33-.33.39.39,0,0,1,.33-.21l.56-.14a2,2,0,0,0,.52-.21l.39.31a.7.7,0,0,1,.58.08V83a1.28,1.28,0,0,0,.41.33c.17.09.19.24.06.45.1.05.17.07.19,0a.89.89,0,0,1,.06.16.24.24,0,0,0,.06.12c.05,0,.06-.06,0-.1s0-.07,0-.1a.13.13,0,0,1,0,.1s0,.07.08.1V84c.05.1.09.16.12.16s0,0,0-.06,0,0,0-.1.07,0,.06,0,0,0,0,0a1.92,1.92,0,0,0,.29.37.4.4,0,0,1,.14.37.15.15,0,0,0,.16.12,1.94,1.94,0,0,1,0,.37,1,1,0,0,0,.08.37.27.27,0,0,0-.06.14c0,.06,0,.1.1.1a1.36,1.36,0,0,0,0-.68l-.18-.68a1.12,1.12,0,0,1,.23.62,6,6,0,0,0,.12.74v-.08a1.14,1.14,0,0,0,.58.17,6.14,6.14,0,0,0,.66.06,8.45,8.45,0,0,0,.91,0,2.74,2.74,0,0,0,.56-.12c.29-.13.54-.23.76-.31a3.3,3.3,0,0,0,.64-.31l.23-.08a.18.18,0,0,0,.14-.06.52.52,0,0,1,.14-.1.21.21,0,0,1-.08.1s0,0,0,.1-.14.12-.19.27l1-.62a.15.15,0,0,0,.1,0s0,0,.1,0a2.34,2.34,0,0,0,.55-.47c.05.05.05.1,0,.14l-.12.1a1.69,1.69,0,0,0-.33.35,1.67,1.67,0,0,1-.33.35.81.81,0,0,0,.27-.16A.5.5,0,0,1,176.38,84.93Zm-7.94,1.24a0,0,0,0,0,0,0,1.93,1.93,0,0,0-.1.43,1.49,1.49,0,0,1-.1.39c0-.16.05-.3.08-.43a2.71,2.71,0,0,0,0-.51.5.5,0,0,1-.23-.25.49.49,0,0,0-.23-.25.13.13,0,0,0-.08-.12.58.58,0,0,1-.16-.12,3.75,3.75,0,0,0-.64.86,2.73,2.73,0,0,1-.68.82.43.43,0,0,1-.08.12.22.22,0,0,0,0,.16.71.71,0,0,0-.19.19,104.82,104.82,0,0,1-.39.47,1.07,1.07,0,0,0-.19.27.37.37,0,0,0,0,.1s0,0-.08.1a9.11,9.11,0,0,0-.55.84c-.16.27-.32.55-.51.84-.05.1-.11.21-.18.31a2.25,2.25,0,0,0-.17.35q-.31.55-.58,1.09a7.9,7.9,0,0,0-.47,1.17,2,2,0,0,0-.29.58,5.85,5.85,0,0,1-.21.58l.08.16a.13.13,0,0,1,0,.16s-.05,0-.08,0,0,0,0,0c-.13.34-.25.68-.35,1a3.44,3.44,0,0,0-.12,1.19A7.49,7.49,0,0,0,163.85,95q.86-1.05,1.63-2.14a.06.06,0,0,1,0-.06s0,0,0-.1a3.69,3.69,0,0,0,.6-.8l.49-.88c.05,0,.08,0,.08,0s0,0,.08,0a1.39,1.39,0,0,0,.12-.35,1.37,1.37,0,0,1,.12-.35c.1-.21.23-.43.37-.66a1.74,1.74,0,0,0,.25-.74s0,0-.08,0-.07,0,0-.06,0,0,0,0,.06,0,.06,0,0,0,.06,0,0,0,.1,0q.19-.62.45-1.23A3.45,3.45,0,0,0,168.44,86.17Zm-5.91.74c.05,0,.06,0,0,.06a.51.51,0,0,0-.1.14s0-.05,0-.08A.13.13,0,0,0,162.53,86.91Zm.16-.08s0,0,0-.08,0,0,0,0S162.68,86.81,162.68,86.83Zm5.49.23s0,0,0,.06,0,.06-.08.06a.08.08,0,0,1,0-.06A.08.08,0,0,0,168.17,87.07Zm.31-4.47c0,.05,0,.07-.1.06a.27.27,0,0,1-.14-.06.12.12,0,0,1,.12,0Zm.58,9.14a1.73,1.73,0,0,1-.27.58,6.3,6.3,0,0,0-.35.55,1.78,1.78,0,0,1,.27-.55A4.31,4.31,0,0,0,169.07,91.74Zm.27-.47,0,0Zm0-.9c.08,0,.09-.09,0-.19a.33.33,0,0,1,0,.1A.33.33,0,0,0,169.38,90.37Zm0,.08s.05,0,.08-.1,0-.08,0-.06A.22.22,0,0,0,169.42,90.45Zm.08-.19a.68.68,0,0,0,.23-.47Zm.47-6.11h-.08a.07.07,0,0,1,.08-.08C170,84.07,170,84.1,170,84.15Zm.39,4.16-.16.54a.3.3,0,0,1,0-.25A1.17,1.17,0,0,0,170.35,88.31Zm3.46-1.17.58-.19L174,87A.5.5,0,0,0,173.81,87.14Zm1.28-.51c.08,0,.12,0,.12-.08S175.15,86.59,175.1,86.64Zm.55-1.24.12-.12a.16.16,0,0,0-.12,0A0,0,0,0,0,175.64,85.39Z"/><path class="cls-1" d="M182.92,92.32q.16-.23.49-.68l.68-.93.68-1c.22-.31.4-.55.53-.7a.25.25,0,0,0,.12-.14.15.15,0,0,1,.16-.1q-.19.27-.35.53a2.68,2.68,0,0,1-.39.49c.05,0,.12,0,.19-.08a3.51,3.51,0,0,0,.35-.41,3.42,3.42,0,0,1,.35-.41l.7-.7c0,.05,0,.08.12.08a3.56,3.56,0,0,1-.45.7c-.22.29-.44.56-.66.82s-.39.47-.51.64-.12.23,0,.17q.55-.62,1.13-1.24t1.25-1.21s0,.05-.12.23-.23.4-.39.64l-.43.7a3.76,3.76,0,0,0-.21.39s.06-.05.23-.27.49-.65,1-1.3c.05.05.06.1,0,.14a.51.51,0,0,0-.1.14,8,8,0,0,1-.72,1.05l-.8,1q.35-.35.7-.76t.78-.84a2.62,2.62,0,0,1-.66.82,13.86,13.86,0,0,0-1,1.21q-.49.66-.91,1.21a.25.25,0,0,0-.12.12.28.28,0,0,1-.19.12.06.06,0,0,1,0,.06.07.07,0,0,0,0,.06l-.21.27-.37.49q-.19.25-.35.49a1.07,1.07,0,0,0-.16.27l.72-.9a3.47,3.47,0,0,1,.64-.66v-.12c.13,0,.17-.05.12-.16h.08l.31-.35,0,0s0,0,0,0l.35-.35.16-.27v.08l.43-.58.35-.51a.51.51,0,0,0,.23-.23.51.51,0,0,1,.23-.23.27.27,0,0,1-.14.21.43.43,0,0,0-.17.25.46.46,0,0,0-.21.19l-.14.27-1,1.28L184,93.72q.27-.35.53-.74t.29-.47l-1.28,1.71-1.32,1.48a3.49,3.49,0,0,1-.55.51,1.23,1.23,0,0,1-.62.58c-.16.18-.29.35-.41.51a2.6,2.6,0,0,1-.41.43,1.65,1.65,0,0,1-.49.51,5.75,5.75,0,0,1-.6.35,1.22,1.22,0,0,0-.23.21.7.7,0,0,1-.23.17,1.73,1.73,0,0,1-.39.17,2.07,2.07,0,0,0-.35.14,1.07,1.07,0,0,0-.29.08l-.45.17a3.86,3.86,0,0,1-.45.16,1.35,1.35,0,0,1-.33.06.53.53,0,0,1-.39-.16,3.46,3.46,0,0,1-.29-.33,1.33,1.33,0,0,0-.31-.29.63.63,0,0,0-.45-.08l-.2-.16a.38.38,0,0,0-.08-.27,5.55,5.55,0,0,1-.08-.93,3.81,3.81,0,0,1,.12-.93,10.11,10.11,0,0,1,.45-1.93q.29-.84.64-1.6t.74-1.48l.82-1.54a.34.34,0,0,0,.1-.18.18.18,0,0,1,.1-.14,7.78,7.78,0,0,1,.54-1c.16-.22.3-.41.45-.58s.29-.36.45-.56.35-.51.58-.9a3.05,3.05,0,0,1-1.21.08,1.48,1.48,0,0,1-1-.43l-.16.31a4.12,4.12,0,0,0-.54.78l-.47.86q-.51.7-.91,1.21t-.91,1.24a3.33,3.33,0,0,1-.78.9,5.38,5.38,0,0,0-.86.9l-.18.19a1.44,1.44,0,0,0-.17.27h-.08a.51.51,0,0,0-.12.17c0,.07-.07.1-.12.1s-.07-.05,0-.08a.11.11,0,0,0,0-.08c-.18,0-.29.09-.31.2a.58.58,0,0,1-.16.27l.12-.23c0-.05,0-.06-.06,0a.09.09,0,0,1-.1.06.09.09,0,0,1,.1-.06.09.09,0,0,0,.06-.1.42.42,0,0,0-.39.19c0-.05,0-.08,0-.1s0,0,0-.1l-.06.08s-.06.05-.14.08,0-.1.08-.16.12-.1.12-.16a.78.78,0,0,0-.25.19.46.46,0,0,1-.25.16l.19-.27a3.12,3.12,0,0,1,.27-.31c-.13,0-.21.08-.23.16a.48.48,0,0,1-.12.19A.22.22,0,0,1,171,93a1,1,0,0,0,.2-.27.17.17,0,0,0-.14.08l-.1.16c-.05-.05-.06-.08,0-.08a.89.89,0,0,0-.33.1l-.29.14a3.11,3.11,0,0,1,.51-.78,6.29,6.29,0,0,0,.55-.7l.17-.33.17-.33s0,0,0,0,0,0,0,0a8.7,8.7,0,0,1,.76-1.07,4.63,4.63,0,0,0,.68-1.07l.35-.45a2.41,2.41,0,0,0,.31-.52c.13-.26.25-.47.35-.64l.31-.51q.16-.25.33-.51c.12-.17.25-.38.41-.64,0,0,0,0,0-.06s-.06,0-.06-.06.09,0,.12,0a.11.11,0,0,1,.08,0,1.66,1.66,0,0,1,0-1.46q.31-.88.54-1.69a1,1,0,0,1,.12-.17l.16-.17a.29.29,0,0,1,0,.29.88.88,0,0,0-.08.37,3.42,3.42,0,0,0-.29.93,1.85,1.85,0,0,0,.06,1,7.27,7.27,0,0,0,0-.74,1.43,1.43,0,0,1,.19-.7,4.76,4.76,0,0,1,.12-.66l.16-.62c.05.05.08.06.08,0s0-.06.08-.06,0,0,0,0a.06.06,0,0,0,0,.08.41.41,0,0,0,.25-.27.41.41,0,0,1,.25-.27c.05,0,.08,0,.1,0s0,0,.1,0a.33.33,0,0,0-.43-.08c0-.08.06-.11.17-.1a.42.42,0,0,1,.25.1,1,1,0,0,1,.21-.27c.06-.05,0,0-.1.23a.51.51,0,0,0,.14-.1.38.38,0,0,1,.25-.06.51.51,0,0,1,.25.08,1.1,1.1,0,0,0,.29.12q.08,0,.06-.06s0-.06.06-.06a.39.39,0,0,0,.25.18,1,1,0,0,1,.29.1,1.78,1.78,0,0,1,.06,1.07q-.14.53-.33,1.07a1.52,1.52,0,0,1-.21.51,2.27,2.27,0,0,0-.25.51,1.74,1.74,0,0,0-.16.58c0,.08.12.15.29.21a.8.8,0,0,0,.45.06l.08,0,.08,0a.66.66,0,0,1,.19,0,.73.73,0,0,0,.23,0,2.1,2.1,0,0,0,.55-.14,1.53,1.53,0,0,1,.58-.1c.05,0,.06,0,0,0s0,0,0-.06.18.08.31,0,.08,0,.1,0,0,0,.06,0a.55.55,0,0,1,.23,0,.47.47,0,0,0,.27-.08.16.16,0,0,1,.12,0s.08,0,.16,0l.14.19a.7.7,0,0,1,.1.23.44.44,0,0,0,.16.16.62.62,0,0,1,.16.12.88.88,0,0,0,.16.35.31.31,0,0,0,.08.23,1.32,1.32,0,0,1,.16.2.42.42,0,0,0-.1.25.32.32,0,0,1-.14.25c-.05,0-.07,0,0-.06a.13.13,0,0,0,0-.14,3.64,3.64,0,0,1-.39.88,5.62,5.62,0,0,0-.43.84.72.72,0,0,0-.14.19.5.5,0,0,1-.18.2l-.35.62a2.41,2.41,0,0,1-.23.33,2.35,2.35,0,0,0-.21.29l-.25.43-.88,1.48q-.37.62-.66,1.25a10.56,10.56,0,0,0-.52,1.38,15.82,15.82,0,0,0-.43,1.85,2,2,0,0,1,.8-.49,2.93,2.93,0,0,0,.88-.45s0,0,0,0,0,0,0,0q.43-.43.82-.86a5.21,5.21,0,0,1,.9-.78h-.08l.17-.17a.27.27,0,0,0,.1-.17l.16-.16.23-.19v0l.08-.08a3.78,3.78,0,0,0,.41-.39,3.13,3.13,0,0,1,.49-.43v0ZM182.61,95c-.05,0,0-.06,0-.1a.35.35,0,0,1,.17-.06.11.11,0,0,0,0-.08.22.22,0,0,0,.08-.16,1.9,1.9,0,0,0-.51.45,3.46,3.46,0,0,0-.35.56.33.33,0,0,0,.14-.16.5.5,0,0,1,.17-.19.22.22,0,0,1,.08-.16s0,0,0,.06a.06.06,0,0,0,0,.06l.35-.35C182.66,94.9,182.61,94.94,182.61,95Zm-.23-2.06.17-.16a.85.85,0,0,0,.17-.19l-.23.17C182.41,92.79,182.37,92.85,182.37,92.9Zm.58,1.75.19-.27a.12.12,0,0,0-.14.1A.75.75,0,0,1,183,94.65Zm.23-.16c.16-.05.23-.14.23-.27Zm.35-.27s.09-.08.19-.23Zm1.09-4.48h-.08c0-.08,0-.12.08-.12s0,0,0,0S184.65,89.7,184.63,89.75Zm.93,1.83s0-.06.08-.12S185.56,91.55,185.56,91.58Zm.31-.43a.59.59,0,0,0-.12.16.63.63,0,0,1-.12.16Zm0,0a.11.11,0,0,0,.08,0l0,0C185.91,91.11,185.87,91.14,185.87,91.11Zm.74-.9a1.47,1.47,0,0,1-.27.35Z"/><path class="cls-1" d="M321.37,135.59l4.47,1.34-.91,3c-1.78-.54-2.67-.81-4.45-1.33Z"/><path class="cls-1" d="M330.3,138.31l4.45,1.42-1,3-4.42-1.41Z"/><path class="cls-1" d="M32,135.59l-4.47,1.34.92,3,4.44-1.33Z"/><path class="cls-1" d="M23.07,138.31l-4.45,1.42,1,3L24,141.31Z"/><path class="cls-1" d="M316,137.31l.86-3c-94.37-24.39-186.06-24.41-280.42,0l.86,3C131.12,113.07,222.25,113.07,316,137.31Z"/><path class="cls-1" d="M338.42,77.81c2,.59,3,.89,5,1.5l-.92,3c-2-.61-3-.91-5-1.49Z"/><path class="cls-1" d="M348.4,80.85c2,.63,3,.94,5,1.59l-1,3c-2-.64-3-1-4.95-1.58Z"/><path class="cls-1" d="M15,77.81c-2,.59-3,.89-5,1.5l.91,3c2-.61,3-.9,5-1.49Z"/><path class="cls-1" d="M5,80.85c-2,.63-3,1-5,1.6l1,3c2-.64,3-1,5-1.59Z"/><path class="cls-1" d="M332.56,79.38l.86-3C228.37,48.85,125,48.84,20,76.36l.86,3C125.29,52,228.1,52,332.56,79.38Z"/><path class="cls-1" d="M291.72,52.65c3.19.6,4.78.91,8,1.56L299,57.36c-3.16-.64-4.75-.95-7.92-1.55Z"/><path class="cls-1" d="M272.13,42.76c3.23.5,4.85.77,8.07,1.31-.21,1.27-.32,1.9-.53,3.17-3.21-.54-4.82-.8-8-1.3Z"/><path class="cls-1" d="M61.58,52.49c-3.19.6-4.78.91-8,1.55.25,1.26.38,1.89.64,3.15,3.16-.64,4.75-.94,7.92-1.54Z"/><path class="cls-1" d="M81.18,42.62c-3.23.5-4.84.76-8.07,1.3l.53,3.17c3.21-.54,4.82-.79,8-1.29Z"/><path class="cls-1" d="M283.75,51.2c-17.43-2.75-34.7-5-52.17-6.8a7,7,0,0,1-1.85,3c17.91,1.82,35.6,4.11,53.46,6.93Z"/><path class="cls-1" d="M232,41c10.61.92,18.69,1.9,31.63,3.74.18-1.27.26-1.91.45-3.18-13.33-1.9-21.54-2.88-32.6-3.83A10.46,10.46,0,0,1,232,41Z"/><path class="cls-1" d="M69.56,51l.55,3.16c17.86-2.79,35.55-5.06,53.46-6.85a7,7,0,0,1-1.81-3C104.28,46.09,87,48.31,69.56,51Z"/><path class="cls-1" d="M89.27,41.43l.45,3.18c13-1.83,21.06-2.8,31.7-3.7a10.7,10.7,0,0,1,.54-3.27C110.86,38.57,102.64,39.55,89.27,41.43Z"/><path class="cls-1" d="M181.78,20.5H171.6L176.69,0Zm-7.17-2.36h4.16l-2.08-8.37Z"/><path class="cls-1" d="M195.93,30.58l-7.2-7.2,18.09-10.89Zm-3.4-6.73,2.94,2.94,4.45-7.38Z"/><path class="cls-1" d="M198.81,47.71V37.53l20.5,5.09Zm2.36-7.17V44.7l8.37-2.08Z"/><path class="cls-1" d="M154.56,47.71l-20.5-5.09,20.5-5.09Zm-10.72-5.09,8.37,2.08V40.55Z"/><path class="cls-1" d="M157.44,30.58,146.55,12.48l18.09,10.89Zm-4-11.18,4.45,7.38,2.94-2.94Z"/><path class="cls-1" d="M159.33,42.62a17.36,17.36,0,1,1,33.53,6.25l2.48.06A19.71,19.71,0,1,0,158,49l2.48-.06A17.24,17.24,0,0,1,159.33,42.62Z"/><path class="cls-1" d="M30.94,98.93a9.7,9.7,0,0,0-1-2.71c-.48-.7-1-1.13-1.7-1-1.07.32-1.13,1.54-.69,3.21a6.63,6.63,0,0,0,1.85,2.79c.91.92,2,1.83,3.14,2.82a45.11,45.11,0,0,1,3.81,3.64,10.1,10.1,0,0,1,2.41,4.13,9.25,9.25,0,0,1,.11,5.31,5.31,5.31,0,0,1-4,3.38c-2.67.7-4.45.09-5.71-1.23a12.56,12.56,0,0,1-2.55-5.46l4-1.47a11.1,11.1,0,0,0,1.21,3.2c.52.86,1.14,1.36,2,1.12,1.24-.33,1.36-1.76.88-3.59a7.31,7.31,0,0,0-1.91-2.85c-.49-.45-1-.94-1.53-1.42-1.12-.95-2.36-2-3.66-3.22a16.78,16.78,0,0,1-3.22-3.88,7.92,7.92,0,0,1-1-2.19,8.23,8.23,0,0,1,.06-4.82,5.25,5.25,0,0,1,3.65-3.28c2.51-.7,4.26,0,5.47,1.25a11.48,11.48,0,0,1,2.37,4.76Z"/><path class="cls-1" d="M51.33,86.05l5,22.84a8,8,0,0,1,0,3.28,5.51,5.51,0,0,1-1.22,2.48,5.14,5.14,0,0,1-3,1.69,5.26,5.26,0,0,1-3.5-.25,5.39,5.39,0,0,1-2.11-1.75,8,8,0,0,1-1.39-3l-5-22.84,4.22-.93,5,22.84a2.55,2.55,0,0,0,1,1.67,1.15,1.15,0,0,0,.89.13,1.26,1.26,0,0,0,1-1.33,2.8,2.8,0,0,0-.08-1.09L47.11,87Z"/><path class="cls-1" d="M71.46,112.18,65.52,94.44l-.37-1.19-.24,0,3.43,19.44-3.94.7-5.11-29,5.21-.92,4.86,12.81.47,1.5h.08l-.07-1.57L70,82.55l5.21-.92,5.11,29-3.94.7L73,91.87l-.24,0,.06,1.25.49,18.7Z"/><path class="cls-1" d="M94.27,108.61l-5.19-18-.32-1.21-.24,0L91.14,109l-4,.53-3.9-29.19,5.24-.7,4.32,13,.4,1.52h.08V92.61l.76-13.68,5.24-.7,3.9,29.18-4,.53L96.62,88.37l-.24,0v1.25l-.29,18.71Z"/><path class="cls-1" d="M107.25,77.38l9.84-1,.44,4.42-5.54.55.77,7.69,4-.4.47,4.7-4,.4.8,8,5.54-.55.44,4.42-9.84,1Z"/><path class="cls-1" d="M133.92,104.6l-3.13-12.22-1.16.08.89,12.38-4.31.31L124.09,75.8l4.31-.31c5.15-.37,7.56,2.39,8,7.94.21,2.92-.36,5.61-1.92,6.84l3.78,14Zm-4.57-16.13a3,3,0,0,0,2-.79c.6-.61,1-1.72.89-3.8s-.75-3.16-1.43-3.67a3,3,0,0,0-2.08-.45Z"/><path class="cls-1" d="M195.69,73.79l4.32.13a7.37,7.37,0,0,1,5.15,2c1.4,1.41,2.29,3.68,2.19,7s-1.13,5.53-2.62,6.85a7.45,7.45,0,0,1-5.26,1.76l-.36,11.77-4.32-.13Zm3.91,13.38c1.32,0,2.17-.17,2.67-.84s.65-1.7.7-3.35a6.69,6.69,0,0,0-.49-3.54,2.89,2.89,0,0,0-2.61-1.12Z"/><path class="cls-1" d="M220.38,104.3l-1.52-12.52-1.16-.07L217,104.11l-4.32-.25,1.72-29.38,4.32.25c5.16.3,7.19,3.35,6.86,8.9-.17,2.92-1.08,5.51-2.79,6.54l1.93,14.39Zm-2.44-16.59A3,3,0,0,0,220,87.2c.67-.52,1.26-1.57,1.38-3.65s-.33-3.23-.94-3.83a3,3,0,0,0-2-.72Z"/><path class="cls-1" d="M242.65,100a8,8,0,0,1-1,3.13,5.5,5.5,0,0,1-1.9,2,5.14,5.14,0,0,1-3.4.71,5.26,5.26,0,0,1-3.27-1.29,5.41,5.41,0,0,1-1.49-2.3,8,8,0,0,1-.44-3.25l1.5-17.28a8,8,0,0,1,1-3.09A5.08,5.08,0,0,1,239,75.85a5.39,5.39,0,0,1,3.23,1.29,5.63,5.63,0,0,1,1.53,2.34,8,8,0,0,1,.44,3.21Zm-2.81-17.65a2.68,2.68,0,0,0-.4-1.88,1.25,1.25,0,0,0-.85-.4,1.34,1.34,0,0,0-1.37,1,3.07,3.07,0,0,0-.25,1.06l-1.5,17.28a2.55,2.55,0,0,0,.44,1.89,1.14,1.14,0,0,0,.81.39,1.27,1.27,0,0,0,1.37-1,2.8,2.8,0,0,0,.25-1.06Z"/><path class="cls-1" d="M257.88,88.75l.53-4.49a2.68,2.68,0,0,0-.34-1.9,1.25,1.25,0,0,0-.84-.42,1.34,1.34,0,0,0-1.4.92,3.06,3.06,0,0,0-.28,1.06l-2.06,17.58a2.55,2.55,0,0,0,.38,1.9,1.14,1.14,0,0,0,.8.42,1.26,1.26,0,0,0,1.4-.92,2.81,2.81,0,0,0,.29-1.05l.62-5.29-1.71-.2.42-3.62,6,.7L260,108l-2.55-.3-.35-1.45a4.3,4.3,0,0,1-3.54,1.32,4.39,4.39,0,0,1-2.95-1.35,5.34,5.34,0,0,1-1.26-2.33,8.06,8.06,0,0,1-.1-3.24l2-17.22a8,8,0,0,1,1.08-3.06,5.08,5.08,0,0,1,5.38-2.6,5.38,5.38,0,0,1,3.19,1.38,5.62,5.62,0,0,1,1.45,2.39,8,8,0,0,1,.35,3.23l-.53,4.49Z"/><path class="cls-1" d="M274.54,110l-.39-12.61L273,97.26l-1.83,12.28-4.28-.64,4.35-29.12,4.28.64c5.11.76,6.86,4,6,9.49-.43,2.89-1.57,5.39-3.37,6.26l.63,14.51ZM273.6,93.3a3,3,0,0,0,2.12-.33c.72-.46,1.39-1.45,1.7-3.51s0-3.25-.59-3.89a3,3,0,0,0-1.93-.9Z"/><path class="cls-1" d="M290.19,82.76l9.73,1.78-.8,4.37-5.48-1-1.39,7.6,3.94.72-.85,4.65-3.94-.72-1.45,8,5.48,1-.8,4.37-9.73-1.78Z"/><path class="cls-1" d="M312.3,95.19a9.64,9.64,0,0,0,.3-2.89c-.1-.84-.41-1.48-1.08-1.63-1.1-.2-1.7.86-2.07,2.54a6.65,6.65,0,0,0,.38,3.32c.39,1.23,1,2.55,1.52,3.94a45.23,45.23,0,0,1,1.74,5,10.1,10.1,0,0,1,.27,4.77,9.26,9.26,0,0,1-2.31,4.78,5.31,5.31,0,0,1-5.14,1.18c-2.7-.59-4-1.94-4.52-3.69a12.58,12.58,0,0,1,.21-6l4.23.51a11.13,11.13,0,0,0-.37,3.4c.07,1,.4,1.73,1.3,1.92,1.25.27,2-1,2.41-2.79a7.32,7.32,0,0,0-.4-3.41c-.23-.62-.46-1.29-.72-2-.57-1.35-1.18-2.88-1.8-4.53a16.8,16.8,0,0,1-1.1-4.91,7.89,7.89,0,0,1,.15-2.39A8.23,8.23,0,0,1,307.55,88a5.25,5.25,0,0,1,4.74-1.26c2.55.52,3.81,1.9,4.3,3.6a11.49,11.49,0,0,1-.05,5.32Z"/><path class="cls-1" d="M330.1,99.5a9.68,9.68,0,0,0,.42-2.87c-.07-.85-.36-1.5-1-1.67-1.1-.24-1.74.79-2.17,2.46a6.63,6.63,0,0,0,.25,3.34c.34,1.25.86,2.58,1.36,4a45.58,45.58,0,0,1,1.55,5,10.09,10.09,0,0,1,.08,4.78,9.26,9.26,0,0,1-2.5,4.69,5.31,5.31,0,0,1-5.18,1c-2.67-.69-3.93-2.09-4.38-3.87a12.57,12.57,0,0,1,.44-6l4.21.68a11.1,11.1,0,0,0-.51,3.39c0,1,.33,1.74,1.23,2,1.24.32,2-.88,2.52-2.7a7.31,7.31,0,0,0-.27-3.42c-.21-.63-.41-1.31-.64-2-.51-1.37-1.06-2.92-1.62-4.6a16.78,16.78,0,0,1-.91-5,7.87,7.87,0,0,1,.24-2.38,8.22,8.22,0,0,1,2.41-4.17,5.25,5.25,0,0,1,4.79-1.07c2.53.62,3.73,2,4.15,3.77a11.49,11.49,0,0,1-.26,5.31Z"/><path class="cls-1" d="M172.33,49.15l-.42,3.12h2.18l.44-3.24a1.08,1.08,0,0,0-.18-.75l-5.48-8,2.35-5.54L177.28,38l-.76,1-2.13-1.57a1.08,1.08,0,0,0-1.28,1.74l3,2.21h0l3,2.21h0l3,2.21a1.07,1.07,0,0,0,1.15.08l-.15,1.21L181,49.33a1.08,1.08,0,0,0-.28.79l.12,2.14H183l-.1-1.8,2-2.17a1.08,1.08,0,0,0,.28-.6l.62-5.13,1.69-2.29a1.08,1.08,0,0,0-.23-1.51l-2.13-1.57.08-.11a1.08,1.08,0,0,0-.23-1.51L182.89,34l.17-.23a1.08,1.08,0,0,0-.23-1.51l-3-2.21a1.08,1.08,0,0,0-1.51.23l-.17.23L176,28.95a1.08,1.08,0,0,0-1.51.23l-2.57,3.49-.74-.4a1.08,1.08,0,0,0-1.5.53l-3,7.17a1.08,1.08,0,0,0,.1,1Zm11.55-10.22,1.26.93-1.23,1.67h0l-1.4,1.9-1.26-.93Zm-1-2.26-.07.1h0l-3.27,4.44-1.26-.93,1.6-2.17.16-.22,1.59-2.16Zm-3.44-4.24,1.26.93-2.1,2.85-1.39-.74Zm-3.81-1.11,1.26.93-1.61,2.18-1.39-.74Z"/></g></g></svg>